# xmcd
#
# Track frame offsets: 
#        150
#        16140
#        35473
#        62041
#        81339
#        90151
#        107029
#        125788
#        164538
#
# Disc length: 2469 seconds
#
# Revision: 0
# Processed by: cddbd v1.5.2PL0 Copyright (c) Steve Scherf et al.
# Submitted via: ExactAudioCopy v1.3
#
DISCID=6c09a309
DTITLE=Black Cat Bone - What A Way To Make A Living
DYEAR=2009
DGENRE=Rockin' Blues
TTITLE0=Devil In Disguise
TTITLE1=Bossaroni Blues
TTITLE2=Bisquit Blues
TTITLE3=Bye-bye Baby
TTITLE4=Branson Boogie
TTITLE5=I Got A Girl
TTITLE6=Maggie Campbell Blues
TTITLE7=Kinhearted Woman
TTITLE8=Separation Lament
EXTD=
EXTT0=
EXTT1=
EXTT2=
EXTT3=
EXTT4=
EXTT5=
EXTT6=
EXTT7=
EXTT8=
PLAYORDER=
